HIERARCHY
ROOT Hips
{
 OFFSET 0.000000 0.000000 0.000000
 CHANNELS 6 Xposition Yposition Zposition Yrotation Xrotation Zrotation
 JOINT Chest
 {
  OFFSET 0.000000 9.585900 0.002600
  CHANNELS 3 Yrotation Xrotation Zrotation
  JOINT Chest2
  {
   OFFSET 0.000000 9.601200 -0.005300
   CHANNELS 3 Yrotation Xrotation Zrotation
   JOINT Chest3
   {
    OFFSET 0.000000 9.561800 0.000000
    CHANNELS 3 Yrotation Xrotation Zrotation
    JOINT Chest4
    {
     OFFSET 0.000000 9.552100 0.000000
     CHANNELS 3 Yrotation Xrotation Zrotation
     JOINT Neck
     {
      OFFSET 0.000000 14.453000 0.000000
      CHANNELS 3 Yrotation Xrotation Zrotation
      JOINT Head
      {
       OFFSET 0.000000 8.936500 -0.011300
       CHANNELS 3 Yrotation Xrotation Zrotation
       End Site
       {
        OFFSET 0.000000 17.073600 -0.006000
       }
      }
     }
     JOINT RightCollar
     {
      OFFSET -2.921100 9.558500 0.000000
      CHANNELS 3 Yrotation Xrotation Zrotation
      JOINT RightShoulder
      {
       OFFSET -13.519700 0.000000 0.000000
       CHANNELS 3 Yrotation Xrotation Zrotation
       JOINT RightElbow
       {
        OFFSET 0.000000 -29.696600 0.000000
        CHANNELS 3 Yrotation Xrotation Zrotation
        JOINT RightWrist
        {
         OFFSET 0.000000 -24.004700 0.000000
         CHANNELS 3 Yrotation Xrotation Zrotation
         End Site
         {
          OFFSET 0.000000 -17.728500 0.000000
         }
        }
       }
      }
     }
     JOINT LeftCollar
     {
      OFFSET 2.921100 9.558500 0.000000
      CHANNELS 3 Yrotation Xrotation Zrotation
      JOINT LeftShoulder
      {
       OFFSET 13.519700 0.000000 0.000000
       CHANNELS 3 Yrotation Xrotation Zrotation
       JOINT LeftElbow
       {
        OFFSET 0.000000 -29.696600 0.000000
        CHANNELS 3 Yrotation Xrotation Zrotation
        JOINT LeftWrist
        {
         OFFSET 0.000000 -24.004700 0.000000
         CHANNELS 3 Yrotation Xrotation Zrotation
         End Site
         {
          OFFSET 0.000000 -17.728500 0.000000
         }
        }
       }
      }
     }
    }
   }
  }
 }
 JOINT RightHip
 {
  OFFSET -7.771700 -0.012900 -0.001300
  CHANNELS 3 Yrotation Xrotation Zrotation
  JOINT RightKnee
  {
   OFFSET 0.000000 -40.869800 0.001200
   CHANNELS 3 Yrotation Xrotation Zrotation
   JOINT RightAnkle
   {
    OFFSET 0.000000 -39.717900 0.002100
    CHANNELS 3 Yrotation Xrotation Zrotation
    JOINT RightToe
    {
     OFFSET 0.000000 -4.965400 11.033500
     CHANNELS 3 Yrotation Xrotation Zrotation
     End Site
     {
      OFFSET 0.000000 -1.423100 5.872300
     }
    }
   }
  }
 }
 JOINT LeftHip
 {
  OFFSET 7.771700 -0.012900 -0.001300
  CHANNELS 3 Yrotation Xrotation Zrotation
  JOINT LeftKnee
  {
   OFFSET 0.000000 -40.869800 0.001200
   CHANNELS 3 Yrotation Xrotation Zrotation
   JOINT LeftAnkle
   {
    OFFSET 0.000000 -39.717900 0.002100
    CHANNELS 3 Yrotation Xrotation Zrotation
    JOINT LeftToe
    {
     OFFSET 0.000000 -4.965400 11.033500
     CHANNELS 3 Yrotation Xrotation Zrotation
     End Site
     {
      OFFSET 0.000000 -1.423100 5.872300
     }
    }
   }
  }
 }
}
MOTION
Frames: 12
Frame Time: 0.008333
-19.824108 58.047502 72.686560 177.935223 -31.171077 -5.672810 2.738969 21.071231 6.228386 0.219692 2.934189 0.482696 0.370515 4.771523 0.791728 1.836532 18.234456 3.312560 0.509316 13.334523 -2.502039 1.929124 -11.069822 -4.960718 -1.186892 -0.498017 -3.655832 -6.068679 -2.197246 -35.080073 -92.347539 -64.257145 136.688611 -3.268366 -13.328556 -36.641490 1.546630 0.144724 3.451917 17.800154 7.203335 14.866355 49.440181 -64.948704 -96.899072 5.685250 -8.380587 30.227852 5.322226 -39.937723 -0.195523 -3.036667 65.204820 -3.669299 4.480974 12.108615 7.861893 -0.153213 -6.994510 1.080860 -10.117145 -47.723615 6.127025 24.871617 59.942380 24.889534 -6.602388 47.017644 5.358873 0.264738 -22.225443 -7.635243
-19.824457 58.048502 72.680297 177.930316 -31.172973 -5.715728 2.767522 21.074698 6.285587 0.217266 2.931739 0.485647 0.367824 4.767756 0.793089 1.833193 18.234307 3.309018 0.494898 13.300892 -2.514717 1.899152 -11.134193 -5.017693 -1.169297 -0.498079 -3.629924 -6.057946 -2.206717 -35.074689 -92.332954 -64.278505 136.662020 -3.261667 -13.320048 -36.648012 1.581093 0.118437 3.511617 17.786654 7.259821 14.981269 49.543326 -64.877186 -97.056840 5.642135 -8.334178 30.280527 5.302698 -39.925444 -0.151856 -3.037956 65.190739 -3.657433 4.488313 12.105255 7.864828 -0.157825 -6.992617 1.078723 -10.144408 -47.722629 6.172018 24.938238 59.952226 24.985553 -6.655749 46.978168 5.301164 0.270036 -22.253803 -7.615085
-19.830951 58.048255 72.676028 177.938072 -31.160229 -5.730218 2.774573 21.064610 6.304795 0.209112 2.929609 0.484042 0.371592 4.766760 0.800854 1.840706 18.228019 3.328674 0.467891 13.267393 -2.548014 1.864019 -11.204697 -5.073642 -1.159383 -0.495329 -3.618527 -6.059997 -2.212169 -35.075620 -92.321194 -64.277735 136.647300 -3.261266 -13.324787 -36.643072 1.598796 0.102466 3.543450 17.788430 7.301057 15.102338 49.624203 -64.811725 -97.201878 5.596352 -8.297361 30.348608 5.314314 -39.928808 -0.173379 -3.035828 65.187415 -3.627297 4.493133 12.095373 7.867771 -0.158869 -6.988147 1.073185 -10.158471 -47.730983 6.179884 24.965947 59.952152 25.028085 -6.683038 46.942652 5.227255 0.256159 -22.264609 -7.560021
-19.839273 58.049007 72.670930 177.939234 -31.157242 -5.731194 2.787851 21.063297 6.314062 0.222659 2.929134 0.494001 0.370075 4.763655 0.806659 1.866888 18.217556 3.370962 0.403714 13.235171 -2.601441 1.825725 -11.283427 -5.125136 -1.171414 -0.473165 -3.586600 -6.083884 -2.235387 -35.114225 -92.319121 -64.269358 136.641501 -3.274806 -13.350906 -36.654612 1.583025 0.090720 3.564082 17.793088 7.337511 15.216806 49.439721 -64.862692 -97.019331 5.662352 -8.381035 30.323644 5.324372 -39.922760 -0.189125 -3.034277 65.185648 -3.620635 4.493501 12.082814 7.876684 -0.156215 -6.982379 1.069560 -10.151670 -47.729038 6.167127 24.981126 59.947907 25.055684 -6.701854 46.926049 5.196814 0.256511 -22.289345 -7.544393
-19.848452 58.049094 72.667776 177.945518 -31.144328 -5.730585 2.795988 21.051894 6.320070 0.223966 2.927825 0.497140 0.356745 4.762629 0.801633 1.896354 18.210317 3.401692 0.368738 13.196045 -2.636398 1.788834 -11.368024 -5.175351 -1.185063 -0.456109 -3.572136 -6.088495 -2.249842 -35.114795 -92.372875 -64.229783 136.681152 -3.243988 -13.288568 -36.665314 1.594824 0.079116 3.605442 17.799901 7.367964 15.325443 49.392970 -64.865127 -96.972576 5.677244 -8.405201 30.323518 5.325815 -39.926480 -0.204863 -3.013816 65.183347 -3.606386 4.490744 12.069258 7.888956 -0.154448 -6.975097 1.066699 -10.144071 -47.736225 6.148618 24.982369 59.940557 25.068093 -6.702343 46.911375 5.183883 0.245552 -22.312178 -7.530520
-19.854102 58.050110 72.664798 177.957068 -31.136510 -5.753939 2.809862 21.042815 6.351387 0.225335 2.926801 0.500389 0.359009 4.762148 0.806676 1.908184 18.203692 3.424348 0.336563 13.152925 -2.669891 1.749957 -11.455299 -5.227663 -1.201007 -0.436024 -3.561253 -6.097531 -2.260683 -35.109127 -92.410963 -64.239393 136.701419 -3.254210 -13.303765 -36.672994 1.607763 0.071550 3.642981 17.808833 7.391476 15.429513 49.405192 -64.851455 -96.990398 5.666266 -8.400936 30.342297 5.323619 -39.919449 -0.206473 -3.008854 65.171715 -3.584490 4.489831 12.049293 7.893075 -0.154830 -6.958479 1.064399 -10.164402 -47.735884 6.162838 24.980975 59.946086 25.085444 -6.719128 46.861472 5.141206 0.235216 -22.299972 -7.505841
-19.857876 58.051969 72.661481 177.967349 -31.136697 -5.787426 2.827506 21.040325 6.393624 0.231277 2.926526 0.505696 0.381903 4.758510 0.826143 1.893383 18.201268 3.433956 0.304483 13.106219 -2.705200 1.714284 -11.541954 -5.279984 -1.222666 -0.419683 -3.561280 -6.104441 -2.261692 -35.091013 -92.449768 -64.271382 136.725621 -3.274076 -13.376429 -36.722147 1.596230 0.070692 3.647701 17.852228 7.395592 15.555945 49.412183 -64.846649 -96.999372 5.655221 -8.397128 30.359010 5.338597 -39.905240 -0.207056 -3.037240 65.156954 -3.575664 4.495028 12.039585 7.895637 -0.155135 -6.949838 1.063408 -10.199823 -47.727956 6.197927 24.960652 59.963609 25.088844 -6.759639 46.804207 5.068667 0.242063 -22.288772 -7.480690
-19.865465 58.053249 72.658717 177.974420 -31.134905 -5.796039 2.845483 21.037928 6.416538 0.221023 2.925095 0.502300 0.395214 4.758448 0.837553 1.902124 18.197052 3.455411 0.277650 13.055450 -2.737363 1.679705 -11.622189 -5.336158 -1.238324 -0.404428 -3.554885 -6.119688 -2.260044 -35.075290 -92.528960 -64.278328 136.773023 -3.267800 -13.378878 -36.744397 1.585498 0.066814 3.651365 17.901311 7.397020 15.675832 49.416955 -64.846334 -97.005537 5.647399 -8.395445 30.375831 5.358326 -39.897367 -0.223608 -3.035637 65.150777 -3.561963 4.491308 12.032866 7.906240 -0.155274 -6.946779 1.063208 -10.192435 -47.722131 6.188959 24.945972 59.966917 25.095486 -6.796466 46.754120 5.012536 0.240478 -22.284952 -7.452456
-19.876286 58.053165 72.657850 177.989240 -31.120616 -5.789664 2.854073 21.026472 6.423444 0.204321 2.922269 0.495465 0.410442 4.759471 0.849766 1.911115 18.193120 3.475590 0.258015 12.985342 -2.774164 1.641142 -11.676814 -5.384602 -1.252508 -0.389293 -3.540993 -6.142859 -2.258205 -35.059903 -92.678007 -64.260807 136.854700 -3.263068 -13.341629 -36.738907 1.626686 0.044075 3.729938 17.891565 7.435878 15.716463 49.430273 -64.846079 -97.020451 5.639359 -8.393788 30.393172 5.364876 -39.904014 -0.255287 -3.007822 65.151011 -3.539139 4.484098 12.025405 7.914561 -0.153620 -6.944405 1.065279 -10.158963 -47.724300 6.149259 24.913844 59.962570 25.087369 -6.852978 46.673995 4.928507 0.246430 -22.239213 -7.405465
-19.884223 58.054717 72.655318 177.997580 -31.123148 -5.797857 2.872807 21.032159 6.446547 0.206486 2.918877 0.500537 0.411001 4.761796 0.852788 1.920517 18.189372 3.495907 0.223676 12.960984 -2.802557 1.619867 -11.773718 -5.444732 -1.283104 -0.385933 -3.549933 -6.157657 -2.245307 -35.017142 -92.800119 -64.276900 136.930436 -3.263920 -13.339533 -36.744442 1.644355 0.028260 3.776900 17.868135 7.463564 15.714630 49.420415 -64.875710 -96.962037 5.626860 -8.391369 30.408585 5.384844 -39.891932 -0.274758 -2.996593 65.145480 -3.514321 4.478779 12.019062 7.922216 -0.154973 -6.941678 1.066886 -10.144007 -47.715710 6.141047 24.908237 59.963706 25.089224 -6.875019 46.633108 4.908984 0.246735 -22.232106 -7.388559
-19.893312 58.056153 72.653142 178.000397 -31.125153 -5.798443 2.882413 21.036244 6.454820 0.217804 2.921324 0.508118 0.400698 4.758927 0.849864 1.945062 18.189797 3.526611 0.198679 12.916405 -2.838432 1.593104 -11.853675 -5.494466 -1.315354 -0.384469 -3.560851 -6.171985 -2.239795 -34.986578 -92.916572 -64.275649 136.994254 -3.264562 -13.339141 -36.745190 1.628487 0.018493 3.778172 17.947238 7.467901 15.817252 49.490489 -64.857642 -97.057630 5.611930 -8.387414 30.423454 5.411475 -39.882526 -0.297056 -2.997576 65.140597 -3.507258 4.480003 12.017497 7.933360 -0.155315 -6.943326 1.069574 -10.109060 -47.708404 6.121546 24.908056 59.962626 25.092397 -6.885130 46.587210 4.913173 0.244003 -22.218974 -7.377121
-19.903732 58.055821 72.654071 178.032245 -31.103718 -5.809758 2.863455 21.019747 6.457679 0.251108 2.930276 0.528295 0.367365 4.749789 0.835629 1.958829 18.190252 3.549616 0.186539 12.873962 -2.866865 1.568782 -11.942214 -5.542947 -1.330299 -0.374415 -3.553928 -6.188433 -2.253347 -34.998147 -92.969988 -64.266494 137.018263 -3.260668 -13.375619 -36.776835 1.622693 0.010594 3.780592 18.025310 7.468633 15.900827 49.571171 -64.846291 -97.163855 5.599891 -8.382022 30.441329 5.418139 -39.892669 -0.329529 -3.006807 65.135667 -3.506511 4.482511 12.010787 7.945976 -0.155636 -6.940460 1.070986 -10.103410 -47.721130 6.102339 24.890937 59.959353 25.084445 -6.894936 46.519577 4.862759 0.222924 -22.167694 -7.317816
